<?xml version="1.0" encoding="utf-8"?>
<!-- Generator: Adobe Illustrator 19.0.0, SVG Export Plug-In . SVG Version: 6.00 Build 0)  -->
<svg version="1.1" id="Layer_1" xmlns="http://www.w3.org/2000/svg" xmlns:xlink="http://www.w3.org/1999/xlink" x="0px" y="0px"
	 viewBox="0 0 500 500" style="enable-background:new 0 0 500 500;" xml:space="preserve">
<style type="text/css">
	.st0{fill:#0DF0D3;}
</style>
<g id="XMLID_1_">
	<path id="XMLID_65_" class="st0" d="M86.6,399.3c0-81.7,0-163.4,0-245c0.2-0.5,0.5-0.9,0.6-1.4c2.5-14.6,10.5-25.1,23.9-31.4
		c3.8-1.8,8.1-2.6,12.2-3.9c81.7,0,163.4,0,245,0c0.4,0.2,0.7,0.5,1.1,0.5c22,4.1,35.6,20.4,35.6,42.7c0,77.3,0,154.6,0,231.9
		c0,3.5-0.2,7.1-1,10.5c-4.4,19.6-20.8,32.7-41,32.7c-78.1,0.1-156.2,0-234.4,0c-0.7,0-1.5,0-2.2-0.1c-16.1-1.2-28.1-8.8-35.4-23.2
		C89,408.6,88.1,403.8,86.6,399.3z M388.3,277.1c0-38.9,0-77.7,0-116.6c0-15.4-10.7-26.2-25.9-26.2c-77.6,0-155.3,0-232.9,0
		c-15.3,0-26.1,10.8-26.1,26c0,77.6,0,155.3,0,232.9c0,2.6,0.3,5.2,1,7.7c3.3,11.7,12.8,18.3,25.7,18.3c77,0,154,0,231,0
		c16.8,0,27.1-10.3,27.2-27.1C388.3,353.8,388.3,315.5,388.3,277.1z"/>
	<path id="XMLID_54_" class="st0" d="M254.5,267.3c1.8,0,3.1,0,4.5,0c35.7,0,71.3,0,107,0c1.4,0,2.9,0,4.3,0.1
		c4.1,0.5,7.2,3.9,7.2,8c0.1,4.1-2.9,7.6-7,8.2c-1.5,0.2-3.1,0.2-4.6,0.2c-35.7,0-71.3,0-107,0c-1.3,0-2.7,0-4.4,0
		c0,1.5,0,2.7,0,3.9c0,37.6,0,75.2,0,112.9c0,1.5,0.1,3.2-0.3,4.6c-1,4-5.2,6.7-9.2,6.3c-4.3-0.5-7.6-3.9-7.8-8.3
		c-0.1-1,0-2.1,0-3.1c0-37.4,0-74.8,0-112.2c0-1.2,0-2.4,0-4.1c-1.6,0-2.9,0-4.2,0c-36.5,0-73,0-109.4,0c-1.4,0-2.9,0-4.3-0.2
		c-4.3-0.6-7.2-4.1-7-8.4c0.1-4.2,3.1-7.4,7.3-7.9c1.3-0.1,2.7-0.1,4-0.1c36.5,0,73,0,109.4,0c1.3,0,2.6,0,4.2,0c0-1.7,0-2.9,0-4.1
		c0-37.1,0-74.2,0-111.3c0-3.4,0.7-6.3,3.8-8.3c3-2,6-2.2,9.1-0.6c3,1.6,4.5,4.1,4.6,7.5c0,1,0,2.1,0,3.1c0,36.5,0,73,0,109.4
		C254.5,264.4,254.5,265.6,254.5,267.3z"/>
	<path id="XMLID_53_" class="st0" d="M176.3,353.5c-6.3,6.4-12.4,12.5-18.4,18.6c-2.4,2.5-5.3,3.6-8.7,2.7
		c-6.3-1.8-8.2-9.3-3.5-14.2c5.3-5.5,10.8-10.9,16.3-16.3c0.8-0.8,1.8-1.4,2.9-2.2c-6.4-6.4-12.4-12.2-18.2-18.3
		c-1.4-1.5-2.7-3.5-3.3-5.4c-1-3.7,0.9-7.2,4.1-8.9c3.3-1.8,7.1-1.3,10,1.6c5.5,5.3,10.9,10.8,16.3,16.3c0.8,0.8,1.3,1.9,2.2,3
		c6.5-6.5,12.3-12.5,18.4-18.3c1.6-1.5,3.7-2.8,5.7-3.3c3.5-0.9,6.9,1,8.6,4.1c1.8,3.3,1.4,7-1.5,10c-5.3,5.5-10.8,10.9-16.2,16.3
		c-0.8,0.8-1.7,1.5-3,2.5c4,3.9,7.6,7.5,11.1,11c2.6,2.6,5.2,5.1,7.7,7.7c3.7,3.9,3.9,8.8,0.6,12.2c-3.4,3.6-8.6,3.5-12.4-0.3
		C188.8,366.2,182.8,360,176.3,353.5z"/>
	<path id="XMLID_52_" class="st0" d="M184.9,215.9c0,9.4,0.1,18.2,0,27c0,4.4-3.1,7.7-7.3,8.3c-3.7,0.5-7.6-1.9-8.7-5.5
		c-0.4-1.5-0.6-3.1-0.6-4.6c-0.1-7.1,0-14.3,0-21.4c0-1.1,0-2.2,0-3.7c-5.3,0-10.2,0-15.2,0c-3.8,0-7.7,0-11.5,0
		c-5.2-0.1-8.7-3.3-8.9-8c-0.2-4.8,3.4-8.5,8.6-8.6c5.4-0.2,10.8,0,16.2,0c3.4,0,6.8,0,10.7,0c0-1.3,0-2.3,0-3.4
		c0-7.7-0.1-15.3,0-23c0.1-6.5,5.4-10.4,11.1-8.5c3.4,1.2,5.5,4.2,5.5,8.1c0.1,7.7,0,15.3,0,23c0,1.1,0,2.2,0,3.6
		c1.4,0.1,2.5,0.2,3.6,0.2c7.6,0,15.1-0.1,22.7,0c4.9,0.1,8.1,2.9,8.7,7.2c0.6,4-1.7,7.7-5.6,8.9c-1.2,0.4-2.6,0.5-4,0.5
		c-7.2,0-14.5,0-21.7,0C187.5,215.9,186.4,215.9,184.9,215.9z"/>
	<path id="XMLID_51_" class="st0" d="M309.9,345.8c11.5,0,23,0,34.5,0c3.9,0,6.5,1.9,8.1,5.2c1.6,3.3,1,6.7-1.5,9.1
		c-1.7,1.6-4.3,3-6.4,3c-23.3,0.2-46.6,0.2-69.9,0.1c-5,0-8.7-3.9-8.8-8.7c-0.1-4.8,3.8-8.7,9-8.7
		C286.5,345.7,298.2,345.8,309.9,345.8z"/>
	<path id="XMLID_50_" class="st0" d="M309.4,215.9c-11.7,0-23.4,0-35.1,0c-4.1,0-7-2.3-8.1-6c-1-3.4,0.2-7.2,3.3-9
		c1.5-0.9,3.5-1.6,5.2-1.6c23.2-0.1,46.4-0.1,69.6,0c5.3,0,8.9,3.7,8.9,8.4c0,4.7-3.8,8.2-9,8.2C332.6,215.9,321,215.9,309.4,215.9
		C309.4,215.9,309.4,215.9,309.4,215.9z"/>
	<path id="XMLID_49_" class="st0" d="M309.7,318.5c11.7,0,23.4,0,35.1,0c3.9,0,6.9,2.3,8,5.8c1.1,3.4,0.1,7.1-2.9,9.1
		c-1.6,1-3.6,1.7-5.5,1.8c-23.2,0.1-46.4,0.1-69.6,0c-5.2,0-9-3.7-8.9-8.4c0-4.7,3.8-8.2,9-8.2C286.5,318.5,298.1,318.5,309.7,318.5
		z"/>
</g>
</svg>
