<?xml version="1.0" encoding="utf-8"?>
<!-- Generator: Adobe Illustrator 19.0.0, SVG Export Plug-In . SVG Version: 6.00 Build 0)  -->
<svg version="1.1" id="Layer_1" xmlns="http://www.w3.org/2000/svg" xmlns:xlink="http://www.w3.org/1999/xlink" x="0px" y="0px"
	 viewBox="0 0 200 200" style="enable-background:new 0 0 200 200;" xml:space="preserve">
<style type="text/css">
	.st0{fill:#14EFD3;}
	.st1{fill:#1FF0D5;}
	.st2{fill:#1EF0D5;}
	.st3{fill:#17F0D4;}
</style>
<path class="st0" d="M42.9,159.3c-4.1-3.7-6.6-8-6.6-13.6c0-5.8,2.2-10.6,6.9-13.9c2.3-1.6,1.8-3.6,1.6-5.6
	c-0.1-1.5-1.6-0.9-2.4-0.9c-8.1,0-16.2,0-24.3,0c-4.3,0-5-0.7-5-5c0-33.4,0-66.8,0-100.2c0-4.4,0.6-5,5-5c54.7,0,109.4,0,164,0
	c4.3,0,4.9,0.6,4.9,5.1c0,33.4,0,66.8,0,100.2c0,4.3-0.7,5-5.1,5c-7.8,0-15.6,0-23.4,0c-1.1,0-3-0.9-3.3,0.9
	c-0.3,1.8-0.8,3.8,1.4,5.3c5.4,3.9,7.6,9.4,7,15.9c-0.5,4.7-2.8,8.5-6.5,11.7c2.8,1.7,5.5,3.3,7.7,5.5c5.7,5.8,8,12.8,7.7,20.7
	c-0.1,2.3-1.2,3.5-3.6,3.5c-0.6,0-1.2,0-1.8,0c-44.8,0-89.6,0-134.4,0c-4.8,0-5.4-0.6-5.3-5.3C27.7,172.5,33,164.5,42.9,159.3z
	 M126.2,82.4c0,2.6,0,4.6,0,6.5c0.1,4.9-0.6,4.3,4.3,4.3c10,0,20,0,30,0c5.8,0,6.2,0.4,6.2,6c0,2,0,4,0,6c0,4.9-0.6,5.5-5.5,5.5
	c-6.2,0-6.1,0-6.1,6.1c0,2.2,0.8,2.6,2.8,2.6c6.8-0.1,13.6-0.2,20.4,0c2.5,0.1,2.9-0.8,2.9-3.1c-0.1-30.8-0.1-61.6,0-92.4
	c0-2.8-1-3.2-3.4-3.2c-25.2,0.1-50.4,0.1-75.6,0.1c-26.8,0-53.6,0-80.4,0c-1.7,0-3-0.2-3,2.4c0.1,31.3,0.1,62.6,0,93.9
	c0,1.9,0.6,2.3,2.4,2.3c5.9-0.1,11.8,0,17.7,0c6.1,0,6,0,6-6.2c0-1.8-0.4-2.6-2.3-2.4c-1.7,0.1-3.4,0.1-5.1,0
	c-3.2-0.1-4.1-1-4.1-4.1c0-2.6,0-5.2,0-7.8c0-5.1,0.5-5.6,5.7-5.6c10.7,0,21.4,0,32.1,0c1,0,2.6,0.6,2.7-1.4c0-2.9,0-5.9,0-8.9
	c-1.4,0-1.9,0.9-2.6,1.4c-7.6,5.8-16.1,4.8-21.8-2.8c-5.1-6.8-10-13.7-15-20.6c-1.6-2.1-1.3-3.8,0.8-5.4c3.3-2.4,6.5-5,9.8-7.4
	c2.8-2,3.9-1.9,5.9,1c3.2,4.4,6.3,8.8,9.4,13.2c2.5,3.5,2.6,3.7,5.8,0.9c5.8-5.2,12.2-8.3,20.1-7.7c0.1,0,0.2-0.3,0.3-0.4
	c-5.7-8.6-5.2-17.1,1.2-23.5c5.8-5.8,14.8-6.8,21.7-2.2c4.3,2.8,6.9,6.9,7.7,12c0.8,5.2-0.9,9.7-4,14c3.1,0.3,5.8,0,8.4,0.6
	c5.4,1.2,9.4,4.8,13.4,8.2c1.7,1.4,2.5,1.2,3.6-0.5c3.4-5,6.9-9.8,10.4-14.7c1.3-1.8,2.7-3.1,5-1.5c3.8,2.8,7.5,5.6,11.3,8.5
	c1.5,1.2,1.8,2.7,0.7,4.2c-5.7,7.7-11.1,15.6-17.1,23.1c-3.3,4.1-8,5.3-13.3,4.3C132.1,87,129.5,84.8,126.2,82.4z M100.1,99.1
	c-19.3,0-38.6,0-57.9,0c-2.3,0-3.1,0.4-3.1,2.9c0,2.4,0.7,3.3,3,3c1.5-0.2,3-0.1,4.5,0c3.2,0.1,4.1,1,4.1,4.1c0,5.5,0.1,11,0,16.5
	c0,2,0.6,2.5,2.5,2.5c8.9-0.1,17.8,0,26.7,0c22.1,0,44.2,0,66.3,0.1c2.5,0,3.3-0.7,3.1-3.2c-0.2-3.5-0.2-7,0-10.5
	c0.2-2.7-0.4-4.2-3.5-3.7c-2.4,0.4-2.5-1.1-2.4-2.9c0-1.7-0.2-3.1,2.4-3c4.3,0.2,8.6,0.1,12.9,0c0.7,0,1.6,0.3,2.1-0.7
	c1.2-2.6-0.2-5.1-3.1-5.1C138.4,99.1,119.2,99.1,100.1,99.1z M102.9,80.2c0,3.5,0.1,7,0,10.5c-0.1,1.9,0.4,2.7,2.5,2.6
	c4.2-0.1,8.4-0.1,12.6,0c1.8,0,2.5-0.5,2.4-2.4c-0.1-4.5,0-9,0-13.5c0-1.6-0.1-3.3,1.7-4.1c1.8-0.7,3,0.3,4.3,1.4c2,1.7,4,3.4,6,5
	c5,3.9,10,3.3,13.7-1.8c3.4-4.6,6.7-9.2,10.1-13.8c3.7-5.1,3.7-5-1.3-8.8c-1.6-1.2-2.4-1.1-3.5,0.6c-3.4,4.9-6.9,9.8-10.4,14.7
	c-2.1,3-3.3,3.1-6.1,0.9c-2.6-2-5.2-4.1-7.7-6.2c-3.3-2.8-7.1-4-11.3-4c-10.5,0-21,0-31.5,0c-4.3,0-8,1.2-11.3,4c-2.4,2.1-5,4-7.5,6
	c-3.1,2.4-4.2,2.3-6.5-1c-2.7-3.7-5.3-7.5-8-11.2c-3.9-5.5-3.9-5.4-9-1.2c-1.2,0.9-1.4,1.6-0.5,2.9c4.4,5.8,8.6,11.8,12.9,17.6
	c3.4,4.5,8.4,5.1,12.9,1.7c2.2-1.7,4.3-3.6,6.5-5.4c1.2-1.1,2.5-2.1,4.3-1.4c1.8,0.8,1.7,2.5,1.7,4.1c0,4.5,0.1,9,0,13.5
	c-0.1,1.9,0.6,2.4,2.4,2.3c4.1-0.1,8.2-0.2,12.3,0c2.4,0.1,2.8-0.8,2.8-2.9c-0.1-7.1,0-14.2-0.1-21.3c0-2.4,1.5-1.9,2.8-1.8
	c1.3,0.1,3.2-0.8,3.1,1.8C102.8,72.8,102.9,76.5,102.9,80.2z M99.9,183.1c6.1,0,12.2,0,18.3,0c1.7,0,2.2-0.5,2-2.2
	c-1.3-10.2-9.7-17.8-20-17.9c-10.4-0.1-18.9,7.4-20.4,17.8c-0.3,2,0.3,2.4,2.1,2.4C88,183.1,93.9,183.1,99.9,183.1z M53.4,183.1
	c5.8,0,11.6-0.1,17.4,0.1c2.6,0.1,3.2-0.7,2.9-3.2c-1.4-9.6-10.2-17-20.2-17c-10.1,0.1-18.8,7.8-20,17.6c-0.2,1.9,0.2,2.6,2.3,2.6
	C41.6,183,47.5,183.1,53.4,183.1z M146.3,183.1c6,0,12-0.1,18,0c1.8,0,2.4-0.4,2.3-2.3c-0.9-9.7-9.7-17.6-19.8-17.8
	c-10.3-0.2-19.3,7.6-20.5,17.3c-0.3,2.3,0.4,2.9,2.7,2.9C134.8,183,140.5,183.1,146.3,183.1z M86.6,134.1c-6.6,0-13,0-19.9,0
	c3.2,4.1,4.6,8.3,4.2,13.1c-0.4,4.9-2.9,8.8-6.6,12.2c5.5,2.7,9.5,6.5,12.5,11.8c1.7-2.7,3.3-5,5.4-6.9c2.1-2,4.6-3.4,7.1-4.9
	C81.3,150.8,80.7,144.9,86.6,134.1z M113.2,133.9c6.4,9.4,5.4,17.8-2.4,25.5c5.5,2.6,9.4,6.5,12.5,11.8c3-5.5,7.1-9.2,12.4-11.9
	c-8-7.8-8.7-16.2-2.5-25.4C126.3,133.9,120,133.9,113.2,133.9z M65.2,145.4c0-6.2-5.2-11.5-11.4-11.5c-6.3-0.1-11.7,5.2-11.8,11.5
	c-0.1,6.2,5.3,11.6,11.6,11.7C59.9,157.1,65.2,151.8,65.2,145.4z M146.5,133.9c-6.1-0.1-11.5,5.1-11.6,11.3
	c-0.1,6.4,5,11.8,11.3,11.9c6.3,0.1,11.7-5.1,11.8-11.4C158.1,139.5,152.8,134,146.5,133.9z M111.5,145.5c0-6.3-5.1-11.5-11.4-11.6
	c-6.4-0.1-11.6,5.2-11.6,11.6c0,6.3,5.1,11.5,11.4,11.6C106.2,157.2,111.5,151.9,111.5,145.5z M88.5,44c0,6.5,5.2,11.7,11.6,11.6
	c6.3-0.1,11.4-5.2,11.4-11.6c0-6.4-5.2-11.7-11.6-11.6C93.6,32.5,88.5,37.7,88.5,44z"/>
<path class="st1" d="M149.1,32.4c-1.8,0.3-3.2,0-2.9-2.7c0.2-1.9-0.2-3.5,2.7-3.3c2.1,0.2,3.6,0.1,3.3,3
	C152,32.4,152.2,32.4,149.1,32.4z"/>
<path class="st2" d="M172.5,26.6c2.8-0.7,2.9,0.8,3,2.9c0.1,2.4-0.7,2.9-3,3c-2.6,0.1-3-0.9-3.1-3.2C169.5,26.8,170.3,26,172.5,26.6
	z"/>
<path class="st3" d="M163.7,29.7c0.7,2.8-1.2,2.6-3.1,2.7c-2.6,0.2-2.5-1.2-2.6-3.1c-0.2-2.5,0.8-2.9,3.1-3
	C163.8,26.3,164,27.6,163.7,29.7z"/>
<path class="st2" d="M131.9,107.5c-0.7-2.8,1.2-2.5,3.1-2.7c3-0.3,2.7,1.4,2.8,3.4c0.3,3-1.6,2.4-3.4,2.6
	C131.7,111.2,131.6,109.6,131.9,107.5z"/>
</svg>
